<svg width="54" height="52" viewBox="0 0 54 52" fill="none" xmlns="http://www.w3.org/2000/svg">
<g id="Icon-exprimer_container">
<path id="Icon" d="M25.7191 6.41419C28.6698 6.40238 31.5816 7.05286 34.2173 8.31265C37.3757 9.80633 40.0338 12.1059 41.894 14.9539C43.7541 17.8019 44.7428 21.0857 44.7493 24.4376C44.7612 27.2407 44.0761 30.007 42.7495 32.5112L47.0157 44.6104L34.2666 40.5946C31.6348 41.8625 28.725 42.5218 25.7743 42.519C22.246 42.5231 18.7863 41.5939 15.7827 39.8355C12.7792 38.0771 10.3505 35.5589 8.76852 32.5631C7.43436 30.063 6.74074 27.2988 6.74416 24.4956L6.74254 23.4337C6.99285 19.0066 8.95327 14.8224 12.2484 11.6824C15.5436 8.54243 19.942 6.66724 24.6013 6.4159L25.7191 6.41419Z" stroke="#64748B" stroke-width="3.92593" stroke-linecap="round" stroke-linejoin="round"/>
</g>
</svg>
