<svg width="58" height="55" viewBox="0 0 58 55" fill="none" xmlns="http://www.w3.org/2000/svg">
<g id="Icon-entreprendre_container">
<g id="Icon">
<path id="Vector" d="M39.5863 44.4445C42.6093 47.8634 51.5822 49.003 51.5822 49.003C51.5822 49.003 50.3826 40.4787 46.7838 37.6069C44.7685 35.9886 41.6736 36.0114 39.8022 37.812C38.9121 38.6979 38.3978 39.8649 38.358 41.089C38.3181 42.3131 38.7555 43.5081 39.5863 44.4445Z" stroke="#64748B" stroke-width="3.59877" stroke-linecap="round" stroke-linejoin="round"/>
<path id="Vector_2" d="M35.988 27.3504L28.7905 34.188C25.4782 32.9752 22.3032 31.448 19.3137 29.6296C14.844 26.9739 11.1638 23.276 8.6232 18.8877C6.08257 14.4993 4.76599 9.56642 4.79869 4.55821C11.3245 4.55821 22.7925 6.336 31.1896 18.2335C33.1059 21.1124 34.7134 24.1667 35.988 27.3504Z" stroke="#64748B" stroke-width="3.59877" stroke-linecap="round" stroke-linejoin="round"/>
<path id="Vector_3" d="M28.7904 34.1884L28.7904 45.5845C28.7904 45.5845 21.5209 44.331 19.1937 41.0261C16.6026 37.3338 19.1937 29.63 19.1937 29.63" stroke="#64748B" stroke-width="3.59877" stroke-linecap="round" stroke-linejoin="round"/>
<path id="Vector_4" d="M35.9879 27.3506L47.9838 27.3506C47.9838 27.3506 46.6643 20.4446 43.1855 18.2338C39.2988 15.7722 31.1896 18.2338 31.1896 18.2338" stroke="#64748B" stroke-width="3.59877" stroke-linecap="round" stroke-linejoin="round"/>
</g>
</g>
</svg>
