<svg width="42" height="45" viewBox="0 0 42 45" fill="none" xmlns="http://www.w3.org/2000/svg">
<path id="Vector" d="M20.9924 34.4611V7.52492M20.9924 34.4611C20.9936 35.594 21.2153 36.7146 21.644 37.7537C22.0727 38.7928 22.6992 39.7284 23.4849 40.5026C24.2705 41.2769 25.1987 41.8734 26.2119 42.2553C27.2251 42.6371 28.302 42.7963 29.3759 42.723C30.4499 42.6496 31.4982 42.3453 32.456 41.8287C33.4139 41.3122 34.261 40.5945 34.945 39.7198C35.629 38.8452 36.1354 37.8322 36.4329 36.7435C36.7304 35.6548 36.8127 34.5134 36.6748 33.3899M20.9924 34.4611C20.9913 35.594 20.7695 36.7146 20.3408 37.7537C19.9121 38.7928 19.2856 39.7284 18.4999 40.5026C17.7143 41.2769 16.7862 41.8734 15.7729 42.2553C14.7597 42.6371 13.6828 42.7963 12.6089 42.723C11.5349 42.6496 10.4866 42.3453 9.52879 41.8287C8.57094 41.3122 7.72385 40.5945 7.03985 39.7198C6.35585 38.8452 5.84945 37.8322 5.55193 36.7435C5.25441 35.6548 5.17209 34.5134 5.31004 33.3899M20.9924 7.52492C20.9924 6.57143 21.2007 5.63071 21.6013 4.77553C22.0019 3.92036 22.5841 3.17366 23.3027 2.5932C24.0213 2.01273 24.8571 1.61407 25.7455 1.42804C26.634 1.24202 27.5511 1.27362 28.4261 1.52041C29.301 1.76719 30.1103 2.22254 30.7913 2.85123C31.4723 3.47992 32.0068 4.2651 32.3535 5.14602C32.7001 6.02694 32.8495 6.97999 32.7902 7.93143C32.731 8.88288 32.4645 9.80722 32.0116 10.6329M20.9924 7.52492C20.9924 6.57143 20.7841 5.63071 20.3835 4.77553C19.9829 3.92036 19.4008 3.17366 18.6821 2.5932C17.9635 2.01273 17.1277 1.61407 16.2393 1.42804C15.3509 1.24202 14.4337 1.27362 13.5588 1.52041C12.6838 1.76719 11.8745 2.22254 11.1935 2.85123C10.5125 3.47992 9.97798 4.2651 9.63136 5.14602C9.28474 6.02694 9.13529 6.97999 9.19457 7.93143C9.25385 8.88288 9.52027 9.80722 9.97322 10.6329M26.8977 24.101C25.1946 23.577 23.6987 22.4862 22.6341 20.992C21.5695 19.4978 20.9935 17.6807 20.9924 15.813C20.9913 17.6807 20.4154 19.4978 19.3507 20.992C18.2861 22.4862 16.7902 23.577 15.0872 24.101M32.797 7.78392C33.954 8.09708 35.0282 8.68328 35.9381 9.49812C36.8481 10.313 37.5699 11.3351 38.049 12.4871C38.5281 13.6391 38.7519 14.8907 38.7034 16.1472C38.655 17.4037 38.3355 18.6322 37.7692 19.7395M32.8029 34.4611C34.5361 34.4611 36.2208 33.859 37.5959 32.7483C38.9709 31.6377 39.9593 30.0805 40.4079 28.3182C40.8565 26.556 40.7402 24.6871 40.077 23.0016C39.4137 21.316 38.2407 19.9079 36.7397 18.9956M9.18191 34.4611C7.44871 34.4611 5.76397 33.859 4.38895 32.7483C3.01393 31.6377 2.02548 30.0805 1.57689 28.3182C1.1283 26.556 1.24464 24.6871 1.90786 23.0016C2.57108 21.316 3.74413 19.9079 5.24508 18.9956M9.18782 7.78392C8.03079 8.09708 6.95662 8.68328 6.04668 9.49812C5.13674 10.313 4.41488 11.3351 3.93578 12.4871C3.45667 13.6391 3.23289 14.8907 3.28137 16.1472C3.32985 17.4037 3.64933 18.6322 4.2156 19.7395" stroke="#64748B" stroke-width="2.61728" stroke-linecap="round" stroke-linejoin="round"/>
</svg>
